{
    "asset" : {
        "generator" : "Khronos glTF Blender I/O v1.5.17",
        "version" : "2.0"
    },
    "scene" : 0,
    "scenes" : [
        {
            "name" : "Scene",
            "nodes" : [
                0,
                1,
                2,
                3,
                4
            ]
        }
    ],
    "nodes" : [
        {
            "mesh" : 0,
            "name" : "furbaby"
        },
        {
            "mesh" : 1,
            "name" : "token",
            "rotation" : [
                -0.7071068286895752,
                0,
                0,
                0.7071068286895752
            ]
        },
        {
            "mesh" : 2,
            "name" : "hand"
        },
        {
            "mesh" : 3,
            "name" : "egg"
        },
        {
            "mesh" : 4,
            "name" : "sat"
        }
    ],
    "meshes" : [
        {
            "name" : "furbaby",
            "primitives" : [
                {
                    "attributes" : {
                        "POSITION" : 0,
                        "NORMAL" : 1,
                        "TEXCOORD_0" : 2
                    },
                    "indices" : 3
                }
            ]
        },
        {
            "name" : "token",
            "primitives" : [
                {
                    "attributes" : {
                        "POSITION" : 4,
                        "NORMAL" : 5,
                        "TEXCOORD_0" : 6
                    },
                    "indices" : 7
                }
            ]
        },
        {
            "name" : "hand",
            "primitives" : [
                {
                    "attributes" : {
                        "POSITION" : 8,
                        "NORMAL" : 9,
                        "TEXCOORD_0" : 10
                    },
                    "indices" : 11
                }
            ]
        },
        {
            "name" : "egg",
            "primitives" : [
                {
                    "attributes" : {
                        "POSITION" : 12,
                        "NORMAL" : 13,
                        "TEXCOORD_0" : 14
                    },
                    "indices" : 15
                }
            ]
        },
        {
            "name" : "sat",
            "primitives" : [
                {
                    "attributes" : {
                        "POSITION" : 16,
                        "NORMAL" : 17,
                        "TEXCOORD_0" : 18
                    },
                    "indices" : 19
                }
            ]
        }
    ],
    "accessors" : [
        {
            "bufferView" : 0,
            "componentType" : 5126,
            "count" : 696,
            "max" : [
                0.6980803608894348,
                1.0682144165039062,
                2.4482712745666504
            ],
            "min" : [
                -0.6980803608894348,
                -1.6051814556121826,
                -3.025721549987793
            ],
            "type" : "VEC3"
        },
        {
            "bufferView" : 1,
            "componentType" : 5126,
            "count" : 696,
            "type" : "VEC3"
        },
        {
            "bufferView" : 2,
            "componentType" : 5126,
            "count" : 696,
            "type" : "VEC2"
        },
        {
            "bufferView" : 3,
            "componentType" : 5123,
            "count" : 696,
            "type" : "SCALAR"
        },
        {
            "bufferView" : 4,
            "componentType" : 5126,
            "count" : 1041,
            "max" : [
                0.999309778213501,
                0.09445071220397949,
                0.9968973994255066
            ],
            "min" : [
                -0.9944844245910645,
                -0.12196660786867142,
                -0.9968971610069275
            ],
            "type" : "VEC3"
        },
        {
            "bufferView" : 5,
            "componentType" : 5126,
            "count" : 1041,
            "type" : "VEC3"
        },
        {
            "bufferView" : 6,
            "componentType" : 5126,
            "count" : 1041,
            "type" : "VEC2"
        },
        {
            "bufferView" : 7,
            "componentType" : 5123,
            "count" : 1074,
            "type" : "SCALAR"
        },
        {
            "bufferView" : 8,
            "componentType" : 5126,
            "count" : 502,
            "max" : [
                0.8640359044075012,
                0.9533120393753052,
                0.6564275026321411
            ],
            "min" : [
                -1.0045726299285889,
                -0.7556730508804321,
                -0.48943081498146057
            ],
            "type" : "VEC3"
        },
        {
            "bufferView" : 9,
            "componentType" : 5126,
            "count" : 502,
            "type" : "VEC3"
        },
        {
            "bufferView" : 10,
            "componentType" : 5126,
            "count" : 502,
            "type" : "VEC2"
        },
        {
            "bufferView" : 11,
            "componentType" : 5123,
            "count" : 504,
            "type" : "SCALAR"
        },
        {
            "bufferView" : 12,
            "componentType" : 5126,
            "count" : 240,
            "max" : [
                0.6218594908714294,
                0.9935027360916138,
                0.6538608074188232
            ],
            "min" : [
                -0.6218594908714294,
                -0.5790652632713318,
                -0.6538608074188232
            ],
            "type" : "VEC3"
        },
        {
            "bufferView" : 13,
            "componentType" : 5126,
            "count" : 240,
            "type" : "VEC3"
        },
        {
            "bufferView" : 14,
            "componentType" : 5126,
            "count" : 240,
            "type" : "VEC2"
        },
        {
            "bufferView" : 15,
            "componentType" : 5123,
            "count" : 240,
            "type" : "SCALAR"
        },
        {
            "bufferView" : 16,
            "componentType" : 5126,
            "count" : 369,
            "max" : [
                3.0938899517059326,
                2.1291847229003906,
                0.9862183928489685
            ],
            "min" : [
                -3.1458797454833984,
                -0.6241177916526794,
                -0.9957857131958008
            ],
            "type" : "VEC3"
        },
        {
            "bufferView" : 17,
            "componentType" : 5126,
            "count" : 369,
            "type" : "VEC3"
        },
        {
            "bufferView" : 18,
            "componentType" : 5126,
            "count" : 369,
            "type" : "VEC2"
        },
        {
            "bufferView" : 19,
            "componentType" : 5123,
            "count" : 369,
            "type" : "SCALAR"
        }
    ],
    "bufferViews" : [
        {
            "buffer" : 0,
            "byteLength" : 8352,
            "byteOffset" : 0
        },
        {
            "buffer" : 0,
            "byteLength" : 8352,
            "byteOffset" : 8352
        },
        {
            "buffer" : 0,
            "byteLength" : 5568,
            "byteOffset" : 16704
        },
        {
            "buffer" : 0,
            "byteLength" : 1392,
            "byteOffset" : 22272
        },
        {
            "buffer" : 0,
            "byteLength" : 12492,
            "byteOffset" : 23664
        },
        {
            "buffer" : 0,
            "byteLength" : 12492,
            "byteOffset" : 36156
        },
        {
            "buffer" : 0,
            "byteLength" : 8328,
            "byteOffset" : 48648
        },
        {
            "buffer" : 0,
            "byteLength" : 2148,
            "byteOffset" : 56976
        },
        {
            "buffer" : 0,
            "byteLength" : 6024,
            "byteOffset" : 59124
        },
        {
            "buffer" : 0,
            "byteLength" : 6024,
            "byteOffset" : 65148
        },
        {
            "buffer" : 0,
            "byteLength" : 4016,
            "byteOffset" : 71172
        },
        {
            "buffer" : 0,
            "byteLength" : 1008,
            "byteOffset" : 75188
        },
        {
            "buffer" : 0,
            "byteLength" : 2880,
            "byteOffset" : 76196
        },
        {
            "buffer" : 0,
            "byteLength" : 2880,
            "byteOffset" : 79076
        },
        {
            "buffer" : 0,
            "byteLength" : 1920,
            "byteOffset" : 81956
        },
        {
            "buffer" : 0,
            "byteLength" : 480,
            "byteOffset" : 83876
        },
        {
            "buffer" : 0,
            "byteLength" : 4428,
            "byteOffset" : 84356
        },
        {
            "buffer" : 0,
            "byteLength" : 4428,
            "byteOffset" : 88784
        },
        {
            "buffer" : 0,
            "byteLength" : 2952,
            "byteOffset" : 93212
        },
        {
            "buffer" : 0,
            "byteLength" : 738,
            "byteOffset" : 96164
        }
    ],
    "buffers" : [
        {
            "byteLength" : 96904,
            "uri" : "data:application/octet-stream;base64,"
        }
    ]
}
