{
    "asset" : {
        "generator" : "Khronos glTF Blender I/O v1.5.17",
        "version" : "2.0"
    },
    "scene" : 0,
    "scenes" : [
        {
            "name" : "Scene",
            "nodes" : [
                0,
                1,
                2,
                3,
                4,
                5,
                6,
                7
            ]
        }
    ],
    "nodes" : [
        {
            "mesh" : 0,
            "name" : "furbaby"
        },
        {
            "mesh" : 1,
            "name" : "token",
            "rotation" : [
                -0.7071068286895752,
                0,
                0,
                0.7071068286895752
            ]
        },
        {
            "mesh" : 2,
            "name" : "hand"
        },
        {
            "mesh" : 3,
            "name" : "egg"
        },
        {
            "mesh" : 4,
            "name" : "sat"
        },
        {
            "mesh" : 5,
            "name" : "heart"
        },
        {
            "mesh" : 6,
            "name" : "doge"
        },
        {
            "mesh" : 7,
            "name" : "tab"
        }
    ],
    "meshes" : [
        {
            "name" : "furbaby",
            "primitives" : [
                {
                    "attributes" : {
                        "POSITION" : 0,
                        "NORMAL" : 1,
                        "TEXCOORD_0" : 2
                    },
                    "indices" : 3
                }
            ]
        },
        {
            "name" : "token",
            "primitives" : [
                {
                    "attributes" : {
                        "POSITION" : 4,
                        "NORMAL" : 5,
                        "TEXCOORD_0" : 6
                    },
                    "indices" : 7
                }
            ]
        },
        {
            "name" : "hand",
            "primitives" : [
                {
                    "attributes" : {
                        "POSITION" : 8,
                        "NORMAL" : 9,
                        "TEXCOORD_0" : 10
                    },
                    "indices" : 11
                }
            ]
        },
        {
            "name" : "egg",
            "primitives" : [
                {
                    "attributes" : {
                        "POSITION" : 12,
                        "NORMAL" : 13,
                        "TEXCOORD_0" : 14
                    },
                    "indices" : 15
                }
            ]
        },
        {
            "name" : "sat",
            "primitives" : [
                {
                    "attributes" : {
                        "POSITION" : 16,
                        "NORMAL" : 17,
                        "TEXCOORD_0" : 18
                    },
                    "indices" : 19
                }
            ]
        },
        {
            "name" : "heart",
            "primitives" : [
                {
                    "attributes" : {
                        "POSITION" : 20,
                        "NORMAL" : 21,
                        "TEXCOORD_0" : 22
                    },
                    "indices" : 23
                }
            ]
        },
        {
            "name" : "doge",
            "primitives" : [
                {
                    "attributes" : {
                        "POSITION" : 24,
                        "NORMAL" : 25,
                        "TEXCOORD_0" : 26
                    },
                    "indices" : 27
                }
            ]
        },
        {
            "name" : "tab",
            "primitives" : [
                {
                    "attributes" : {
                        "POSITION" : 28,
                        "NORMAL" : 29,
                        "TEXCOORD_0" : 30
                    },
                    "indices" : 31
                }
            ]
        }
    ],
    "accessors" : [
        {
            "bufferView" : 0,
            "componentType" : 5126,
            "count" : 672,
            "max" : [
                0.6980803608894348,
                1.0661301612854004,
                2.4482712745666504
            ],
            "min" : [
                -0.6980803608894348,
                -1.6051814556121826,
                -3.025721549987793
            ],
            "type" : "VEC3"
        },
        {
            "bufferView" : 1,
            "componentType" : 5126,
            "count" : 672,
            "type" : "VEC3"
        },
        {
            "bufferView" : 2,
            "componentType" : 5126,
            "count" : 672,
            "type" : "VEC2"
        },
        {
            "bufferView" : 3,
            "componentType" : 5123,
            "count" : 672,
            "type" : "SCALAR"
        },
        {
            "bufferView" : 4,
            "componentType" : 5126,
            "count" : 1041,
            "max" : [
                0.999309778213501,
                0.09445071220397949,
                0.9968973994255066
            ],
            "min" : [
                -0.9944844245910645,
                -0.12196660786867142,
                -0.9968971610069275
            ],
            "type" : "VEC3"
        },
        {
            "bufferView" : 5,
            "componentType" : 5126,
            "count" : 1041,
            "type" : "VEC3"
        },
        {
            "bufferView" : 6,
            "componentType" : 5126,
            "count" : 1041,
            "type" : "VEC2"
        },
        {
            "bufferView" : 7,
            "componentType" : 5123,
            "count" : 1074,
            "type" : "SCALAR"
        },
        {
            "bufferView" : 8,
            "componentType" : 5126,
            "count" : 502,
            "max" : [
                0.8640359044075012,
                0.9533120393753052,
                0.6564275026321411
            ],
            "min" : [
                -1.0045726299285889,
                -0.7556730508804321,
                -0.48943081498146057
            ],
            "type" : "VEC3"
        },
        {
            "bufferView" : 9,
            "componentType" : 5126,
            "count" : 502,
            "type" : "VEC3"
        },
        {
            "bufferView" : 10,
            "componentType" : 5126,
            "count" : 502,
            "type" : "VEC2"
        },
        {
            "bufferView" : 11,
            "componentType" : 5123,
            "count" : 504,
            "type" : "SCALAR"
        },
        {
            "bufferView" : 12,
            "componentType" : 5126,
            "count" : 240,
            "max" : [
                0.6218594908714294,
                0.9935027360916138,
                0.6538608074188232
            ],
            "min" : [
                -0.6218594908714294,
                -0.5790652632713318,
                -0.6538608074188232
            ],
            "type" : "VEC3"
        },
        {
            "bufferView" : 13,
            "componentType" : 5126,
            "count" : 240,
            "type" : "VEC3"
        },
        {
            "bufferView" : 14,
            "componentType" : 5126,
            "count" : 240,
            "type" : "VEC2"
        },
        {
            "bufferView" : 15,
            "componentType" : 5123,
            "count" : 240,
            "type" : "SCALAR"
        },
        {
            "bufferView" : 16,
            "componentType" : 5126,
            "count" : 492,
            "max" : [
                3.0938899517059326,
                1.8413984775543213,
                0.861948549747467
            ],
            "min" : [
                -3.1458797454833984,
                -0.6241177916526794,
                -0.9551835656166077
            ],
            "type" : "VEC3"
        },
        {
            "bufferView" : 17,
            "componentType" : 5126,
            "count" : 492,
            "type" : "VEC3"
        },
        {
            "bufferView" : 18,
            "componentType" : 5126,
            "count" : 492,
            "type" : "VEC2"
        },
        {
            "bufferView" : 19,
            "componentType" : 5123,
            "count" : 510,
            "type" : "SCALAR"
        },
        {
            "bufferView" : 20,
            "componentType" : 5126,
            "count" : 228,
            "max" : [
                1.0605021715164185,
                0.8208580613136292,
                0.3465431332588196
            ],
            "min" : [
                -1.0605021715164185,
                -1.1560026407241821,
                -0.3465431332588196
            ],
            "type" : "VEC3"
        },
        {
            "bufferView" : 21,
            "componentType" : 5126,
            "count" : 228,
            "type" : "VEC3"
        },
        {
            "bufferView" : 22,
            "componentType" : 5126,
            "count" : 228,
            "type" : "VEC2"
        },
        {
            "bufferView" : 23,
            "componentType" : 5123,
            "count" : 228,
            "type" : "SCALAR"
        },
        {
            "bufferView" : 24,
            "componentType" : 5126,
            "count" : 732,
            "max" : [
                0.6980803608894348,
                1.0033968687057495,
                2.5553622245788574
            ],
            "min" : [
                -0.6980803608894348,
                -1.6051814556121826,
                -1.750525951385498
            ],
            "type" : "VEC3"
        },
        {
            "bufferView" : 25,
            "componentType" : 5126,
            "count" : 732,
            "type" : "VEC3"
        },
        {
            "bufferView" : 26,
            "componentType" : 5126,
            "count" : 732,
            "type" : "VEC2"
        },
        {
            "bufferView" : 27,
            "componentType" : 5123,
            "count" : 732,
            "type" : "SCALAR"
        },
        {
            "bufferView" : 28,
            "componentType" : 5126,
            "count" : 702,
            "max" : [
                0.5880355834960938,
                0.8486772179603577,
                2.5659403800964355
            ],
            "min" : [
                -0.5880355834960938,
                -1.6051814556121826,
                -2.07576584815979
            ],
            "type" : "VEC3"
        },
        {
            "bufferView" : 29,
            "componentType" : 5126,
            "count" : 702,
            "type" : "VEC3"
        },
        {
            "bufferView" : 30,
            "componentType" : 5126,
            "count" : 702,
            "type" : "VEC2"
        },
        {
            "bufferView" : 31,
            "componentType" : 5123,
            "count" : 702,
            "type" : "SCALAR"
        }
    ],
    "bufferViews" : [
        {
            "buffer" : 0,
            "byteLength" : 8064,
            "byteOffset" : 0
        },
        {
            "buffer" : 0,
            "byteLength" : 8064,
            "byteOffset" : 8064
        },
        {
            "buffer" : 0,
            "byteLength" : 5376,
            "byteOffset" : 16128
        },
        {
            "buffer" : 0,
            "byteLength" : 1344,
            "byteOffset" : 21504
        },
        {
            "buffer" : 0,
            "byteLength" : 12492,
            "byteOffset" : 22848
        },
        {
            "buffer" : 0,
            "byteLength" : 12492,
            "byteOffset" : 35340
        },
        {
            "buffer" : 0,
            "byteLength" : 8328,
            "byteOffset" : 47832
        },
        {
            "buffer" : 0,
            "byteLength" : 2148,
            "byteOffset" : 56160
        },
        {
            "buffer" : 0,
            "byteLength" : 6024,
            "byteOffset" : 58308
        },
        {
            "buffer" : 0,
            "byteLength" : 6024,
            "byteOffset" : 64332
        },
        {
            "buffer" : 0,
            "byteLength" : 4016,
            "byteOffset" : 70356
        },
        {
            "buffer" : 0,
            "byteLength" : 1008,
            "byteOffset" : 74372
        },
        {
            "buffer" : 0,
            "byteLength" : 2880,
            "byteOffset" : 75380
        },
        {
            "buffer" : 0,
            "byteLength" : 2880,
            "byteOffset" : 78260
        },
        {
            "buffer" : 0,
            "byteLength" : 1920,
            "byteOffset" : 81140
        },
        {
            "buffer" : 0,
            "byteLength" : 480,
            "byteOffset" : 83060
        },
        {
            "buffer" : 0,
            "byteLength" : 5904,
            "byteOffset" : 83540
        },
        {
            "buffer" : 0,
            "byteLength" : 5904,
            "byteOffset" : 89444
        },
        {
            "buffer" : 0,
            "byteLength" : 3936,
            "byteOffset" : 95348
        },
        {
            "buffer" : 0,
            "byteLength" : 1020,
            "byteOffset" : 99284
        },
        {
            "buffer" : 0,
            "byteLength" : 2736,
            "byteOffset" : 100304
        },
        {
            "buffer" : 0,
            "byteLength" : 2736,
            "byteOffset" : 103040
        },
        {
            "buffer" : 0,
            "byteLength" : 1824,
            "byteOffset" : 105776
        },
        {
            "buffer" : 0,
            "byteLength" : 456,
            "byteOffset" : 107600
        },
        {
            "buffer" : 0,
            "byteLength" : 8784,
            "byteOffset" : 108056
        },
        {
            "buffer" : 0,
            "byteLength" : 8784,
            "byteOffset" : 116840
        },
        {
            "buffer" : 0,
            "byteLength" : 5856,
            "byteOffset" : 125624
        },
        {
            "buffer" : 0,
            "byteLength" : 1464,
            "byteOffset" : 131480
        },
        {
            "buffer" : 0,
            "byteLength" : 8424,
            "byteOffset" : 132944
        },
        {
            "buffer" : 0,
            "byteLength" : 8424,
            "byteOffset" : 141368
        },
        {
            "buffer" : 0,
            "byteLength" : 5616,
            "byteOffset" : 149792
        },
        {
            "buffer" : 0,
            "byteLength" : 1404,
            "byteOffset" : 155408
        }
    ],
    "buffers" : [
        {
            "byteLength" : 156812,
            "uri" : "data:application/octet-stream;base64,"
        }
    ]
}
