{
    "asset" : {
        "generator" : "Khronos glTF Blender I/O v1.5.17",
        "version" : "2.0"
    },
    "scene" : 0,
    "scenes" : [
        {
            "name" : "Scene",
            "nodes" : [
                0,
                1,
                2
            ]
        }
    ],
    "nodes" : [
        {
            "mesh" : 0,
            "name" : "furbaby"
        },
        {
            "mesh" : 1,
            "name" : "token",
            "rotation" : [
                -0.7071068286895752,
                0,
                0,
                0.7071068286895752
            ]
        },
        {
            "mesh" : 2,
            "name" : "hand"
        }
    ],
    "meshes" : [
        {
            "name" : "furbaby",
            "primitives" : [
                {
                    "attributes" : {
                        "POSITION" : 0,
                        "NORMAL" : 1,
                        "TEXCOORD_0" : 2
                    },
                    "indices" : 3
                }
            ]
        },
        {
            "name" : "token",
            "primitives" : [
                {
                    "attributes" : {
                        "POSITION" : 4,
                        "NORMAL" : 5,
                        "TEXCOORD_0" : 6
                    },
                    "indices" : 7
                }
            ]
        },
        {
            "name" : "hand",
            "primitives" : [
                {
                    "attributes" : {
                        "POSITION" : 8,
                        "NORMAL" : 9,
                        "TEXCOORD_0" : 10
                    },
                    "indices" : 11
                }
            ]
        }
    ],
    "accessors" : [
        {
            "bufferView" : 0,
            "componentType" : 5126,
            "count" : 696,
            "max" : [
                0.6980803608894348,
                1.0682144165039062,
                2.4482712745666504
            ],
            "min" : [
                -0.6980803608894348,
                -1.6051814556121826,
                -3.025721549987793
            ],
            "type" : "VEC3"
        },
        {
            "bufferView" : 1,
            "componentType" : 5126,
            "count" : 696,
            "type" : "VEC3"
        },
        {
            "bufferView" : 2,
            "componentType" : 5126,
            "count" : 696,
            "type" : "VEC2"
        },
        {
            "bufferView" : 3,
            "componentType" : 5123,
            "count" : 696,
            "type" : "SCALAR"
        },
        {
            "bufferView" : 4,
            "componentType" : 5126,
            "count" : 954,
            "max" : [
                0.9968969821929932,
                0.09445071220397949,
                0.9968973994255066
            ],
            "min" : [
                -0.9968972206115723,
                -0.09445071220397949,
                -0.9968971610069275
            ],
            "type" : "VEC3"
        },
        {
            "bufferView" : 5,
            "componentType" : 5126,
            "count" : 954,
            "type" : "VEC3"
        },
        {
            "bufferView" : 6,
            "componentType" : 5126,
            "count" : 954,
            "type" : "VEC2"
        },
        {
            "bufferView" : 7,
            "componentType" : 5123,
            "count" : 978,
            "type" : "SCALAR"
        },
        {
            "bufferView" : 8,
            "componentType" : 5126,
            "count" : 502,
            "max" : [
                0.8640359044075012,
                0.9533120393753052,
                0.6564275026321411
            ],
            "min" : [
                -1.0045726299285889,
                -0.7556730508804321,
                -0.48943081498146057
            ],
            "type" : "VEC3"
        },
        {
            "bufferView" : 9,
            "componentType" : 5126,
            "count" : 502,
            "type" : "VEC3"
        },
        {
            "bufferView" : 10,
            "componentType" : 5126,
            "count" : 502,
            "type" : "VEC2"
        },
        {
            "bufferView" : 11,
            "componentType" : 5123,
            "count" : 504,
            "type" : "SCALAR"
        }
    ],
    "bufferViews" : [
        {
            "buffer" : 0,
            "byteLength" : 8352,
            "byteOffset" : 0
        },
        {
            "buffer" : 0,
            "byteLength" : 8352,
            "byteOffset" : 8352
        },
        {
            "buffer" : 0,
            "byteLength" : 5568,
            "byteOffset" : 16704
        },
        {
            "buffer" : 0,
            "byteLength" : 1392,
            "byteOffset" : 22272
        },
        {
            "buffer" : 0,
            "byteLength" : 11448,
            "byteOffset" : 23664
        },
        {
            "buffer" : 0,
            "byteLength" : 11448,
            "byteOffset" : 35112
        },
        {
            "buffer" : 0,
            "byteLength" : 7632,
            "byteOffset" : 46560
        },
        {
            "buffer" : 0,
            "byteLength" : 1956,
            "byteOffset" : 54192
        },
        {
            "buffer" : 0,
            "byteLength" : 6024,
            "byteOffset" : 56148
        },
        {
            "buffer" : 0,
            "byteLength" : 6024,
            "byteOffset" : 62172
        },
        {
            "buffer" : 0,
            "byteLength" : 4016,
            "byteOffset" : 68196
        },
        {
            "buffer" : 0,
            "byteLength" : 1008,
            "byteOffset" : 72212
        }
    ],
    "buffers" : [
        {
            "byteLength" : 73220,
            "uri" : "data:application/octet-stream;base64,"
        }
    ]
}
